<mxfile host="app.diagrams.net" modified="2021-03-20T22:08:01.674Z" agent="5.0 (Macintosh; Intel Mac OS X 10_15_7) AppleWebKit/537.36 (KHTML, like Gecko) Chrome/89.0.4389.58 Safari/537.36" etag="xCL7pLHUhXqmYMJmqfRb" version="14.4.9" type="github">
  <diagram id="Bqiee5ZmtiU1pbYOoO7F" name="Page-1">
    <mxGraphModel dx="763" dy="490" grid="1" gridSize="10" guides="1" tooltips="1" connect="1" arrows="1" fold="1" page="1" pageScale="1" pageWidth="827" pageHeight="1169" background="#DAD2D8" math="0" shadow="0">
      <root>
        <mxCell id="0" />
        <mxCell id="1" parent="0" />
        <mxCell id="O1Ew0qbhxfNDliVo-ExG-4" value="&lt;h1&gt;Amplifier Board&lt;/h1&gt;" style="whiteSpace=wrap;html=1;align=left;rounded=1;verticalAlign=top;fillColor=#FAE5C7;strokeColor=#0F8B8D;fontColor=#143642;" vertex="1" parent="1">
          <mxGeometry x="30" y="30" width="490" height="320" as="geometry" />
        </mxCell>
        <mxCell id="O1Ew0qbhxfNDliVo-ExG-8" style="edgeStyle=orthogonalEdgeStyle;orthogonalLoop=1;jettySize=auto;html=1;fontSize=18;endArrow=block;endFill=1;startArrow=block;startFill=1;strokeColor=#A8201A;fontColor=#143642;labelBackgroundColor=#DAD2D8;" edge="1" parent="1" source="O1Ew0qbhxfNDliVo-ExG-1" target="O1Ew0qbhxfNDliVo-ExG-12">
          <mxGeometry relative="1" as="geometry">
            <mxPoint x="240" y="175" as="targetPoint" />
          </mxGeometry>
        </mxCell>
        <mxCell id="O1Ew0qbhxfNDliVo-ExG-1" value="&lt;font style=&quot;font-size: 14px&quot;&gt;Data acquisition hardware&lt;/font&gt;" style="shape=document;whiteSpace=wrap;html=1;boundedLbl=1;rounded=1;fillColor=#FAE5C7;strokeColor=#0F8B8D;fontColor=#143642;" vertex="1" parent="1">
          <mxGeometry x="40" y="130" width="120" height="80" as="geometry" />
        </mxCell>
        <mxCell id="O1Ew0qbhxfNDliVo-ExG-12" value="&lt;p&gt;&lt;font color=&quot;#000000&quot; style=&quot;font-size: 14px&quot;&gt;FPGA&lt;/font&gt;&lt;/p&gt;" style="whiteSpace=wrap;html=1;fontSize=18;shadow=1;rounded=1;fillColor=#FAE5C7;strokeColor=#0F8B8D;fontColor=#143642;" vertex="1" parent="1">
          <mxGeometry x="210" y="140" width="100" height="60" as="geometry" />
        </mxCell>
        <mxCell id="O1Ew0qbhxfNDliVo-ExG-13" value="&lt;p&gt;&lt;font color=&quot;#000000&quot;&gt;&lt;span style=&quot;font-size: 14px&quot;&gt;MicroProcessor&lt;/span&gt;&lt;/font&gt;&lt;/p&gt;&lt;p&gt;&lt;span style=&quot;font-size: 14px&quot;&gt;&lt;font color=&quot;#7ea6e0&quot;&gt;AT91SAM9G45&lt;/font&gt;&lt;/span&gt;&lt;/p&gt;" style="whiteSpace=wrap;html=1;shadow=1;fontSize=18;rounded=1;fillColor=#f8cecc;strokeColor=#b85450;" vertex="1" parent="1">
          <mxGeometry x="360" y="112.5" width="120" height="115" as="geometry" />
        </mxCell>
        <mxCell id="O1Ew0qbhxfNDliVo-ExG-14" value="" style="edgeStyle=orthogonalEdgeStyle;orthogonalLoop=1;jettySize=auto;html=1;fontSize=18;endArrow=block;endFill=1;startArrow=block;startFill=1;strokeColor=#A8201A;fontColor=#143642;labelBackgroundColor=#DAD2D8;" edge="1" parent="1" source="O1Ew0qbhxfNDliVo-ExG-12" target="O1Ew0qbhxfNDliVo-ExG-13">
          <mxGeometry relative="1" as="geometry" />
        </mxCell>
        <mxCell id="O1Ew0qbhxfNDliVo-ExG-26" value="" style="group;fontColor=#143642;" vertex="1" connectable="0" parent="1">
          <mxGeometry x="387" y="240" width="66" height="60" as="geometry" />
        </mxCell>
        <mxCell id="O1Ew0qbhxfNDliVo-ExG-20" value="&lt;p&gt;RedBoot&lt;/p&gt;" style="text;html=1;strokeColor=none;fillColor=none;align=center;verticalAlign=middle;whiteSpace=wrap;rounded=0;sketch=0;fontSize=14;fontColor=#143642;" vertex="1" parent="O1Ew0qbhxfNDliVo-ExG-26">
          <mxGeometry x="6" width="60" height="20" as="geometry" />
        </mxCell>
        <mxCell id="O1Ew0qbhxfNDliVo-ExG-22" value="&lt;p&gt;eCOS&lt;br&gt;&lt;/p&gt;" style="text;html=1;strokeColor=none;fillColor=none;align=center;verticalAlign=middle;whiteSpace=wrap;rounded=0;sketch=0;fontSize=14;fontColor=#143642;" vertex="1" parent="O1Ew0qbhxfNDliVo-ExG-26">
          <mxGeometry y="20" width="60" height="20" as="geometry" />
        </mxCell>
        <mxCell id="O1Ew0qbhxfNDliVo-ExG-24" value="&lt;p&gt;&lt;font color=&quot;#000000&quot;&gt;Firmware&lt;/font&gt;&lt;/p&gt;" style="text;html=1;strokeColor=none;fillColor=none;align=center;verticalAlign=middle;whiteSpace=wrap;rounded=0;sketch=0;fontSize=14;labelBackgroundColor=none;labelBorderColor=none;fontStyle=1;fontColor=#143642;" vertex="1" parent="O1Ew0qbhxfNDliVo-ExG-26">
          <mxGeometry x="6" y="40" width="60" height="20" as="geometry" />
        </mxCell>
        <mxCell id="O1Ew0qbhxfNDliVo-ExG-27" value="" style="group;fontColor=#143642;" vertex="1" connectable="0" parent="1">
          <mxGeometry x="206.25" y="210" width="107.5" height="40" as="geometry" />
        </mxCell>
        <mxCell id="O1Ew0qbhxfNDliVo-ExG-16" value="&lt;p style=&quot;font-size: 14px&quot;&gt;&lt;span style=&quot;color: rgb(0 , 0 , 0)&quot;&gt;Low pass filter&lt;/span&gt;&lt;br&gt;&lt;/p&gt;" style="text;html=1;strokeColor=none;fillColor=none;align=center;verticalAlign=middle;whiteSpace=wrap;shadow=1;fontSize=18;rounded=1;fontColor=#143642;" vertex="1" parent="O1Ew0qbhxfNDliVo-ExG-27">
          <mxGeometry width="105" height="20" as="geometry" />
        </mxCell>
        <mxCell id="O1Ew0qbhxfNDliVo-ExG-18" value="&lt;p style=&quot;font-size: 14px&quot;&gt;&lt;span style=&quot;color: rgb(0 , 0 , 0)&quot;&gt;Down sampling&lt;/span&gt;&lt;br&gt;&lt;/p&gt;" style="text;html=1;strokeColor=none;fillColor=none;align=center;verticalAlign=middle;whiteSpace=wrap;shadow=1;fontSize=18;rounded=1;fontColor=#143642;" vertex="1" parent="O1Ew0qbhxfNDliVo-ExG-27">
          <mxGeometry x="2.5" y="20" width="105" height="20" as="geometry" />
        </mxCell>
        <mxCell id="O1Ew0qbhxfNDliVo-ExG-29" value="&lt;b&gt;&lt;font style=&quot;font-size: 24px&quot;&gt;PC&lt;/font&gt;&lt;/b&gt;" style="rounded=1;whiteSpace=wrap;html=1;sketch=0;fontSize=14;align=left;verticalAlign=top;fillColor=#FAE5C7;strokeColor=#0F8B8D;fontColor=#143642;" vertex="1" parent="1">
          <mxGeometry x="620" y="112.5" width="440" height="247.5" as="geometry" />
        </mxCell>
        <mxCell id="O1Ew0qbhxfNDliVo-ExG-36" value="" style="edgeStyle=orthogonalEdgeStyle;rounded=1;sketch=0;orthogonalLoop=1;jettySize=auto;html=1;startArrow=block;startFill=1;endArrow=block;endFill=1;fontSize=14;strokeColor=#A8201A;fontColor=#143642;labelBackgroundColor=#DAD2D8;" edge="1" parent="1" source="O1Ew0qbhxfNDliVo-ExG-32" target="O1Ew0qbhxfNDliVo-ExG-33">
          <mxGeometry relative="1" as="geometry" />
        </mxCell>
        <mxCell id="O1Ew0qbhxfNDliVo-ExG-32" value="Database" style="rounded=1;whiteSpace=wrap;html=1;labelBackgroundColor=none;sketch=0;fontSize=14;align=left;fillColor=#f8cecc;strokeColor=#b85450;" vertex="1" parent="1">
          <mxGeometry x="770" y="250" width="90" height="60" as="geometry" />
        </mxCell>
        <mxCell id="O1Ew0qbhxfNDliVo-ExG-30" value="" style="edgeStyle=orthogonalEdgeStyle;rounded=1;sketch=0;orthogonalLoop=1;jettySize=auto;html=1;startArrow=block;startFill=1;endArrow=block;endFill=1;fontSize=14;strokeColor=#A8201A;fontColor=#143642;labelBackgroundColor=#DAD2D8;strokeWidth=3;" edge="1" parent="1" source="O1Ew0qbhxfNDliVo-ExG-13">
          <mxGeometry relative="1" as="geometry">
            <mxPoint x="620" y="170" as="targetPoint" />
            <Array as="points">
              <mxPoint x="610" y="170" />
              <mxPoint x="610" y="170" />
            </Array>
          </mxGeometry>
        </mxCell>
        <mxCell id="O1Ew0qbhxfNDliVo-ExG-31" value="Ethernet" style="edgeLabel;html=1;align=center;verticalAlign=middle;resizable=0;points=[];fontSize=14;fontColor=#143642;labelBackgroundColor=#DAD2D8;" vertex="1" connectable="0" parent="O1Ew0qbhxfNDliVo-ExG-30">
          <mxGeometry x="-0.1571" relative="1" as="geometry">
            <mxPoint x="21" y="10" as="offset" />
          </mxGeometry>
        </mxCell>
        <mxCell id="O1Ew0qbhxfNDliVo-ExG-33" value="Data analysis software" style="rounded=1;whiteSpace=wrap;html=1;labelBackgroundColor=none;sketch=0;fontSize=14;align=left;fillColor=#f8cecc;strokeColor=#b85450;" vertex="1" parent="1">
          <mxGeometry x="920" y="250" width="120" height="60" as="geometry" />
        </mxCell>
        <mxCell id="O1Ew0qbhxfNDliVo-ExG-43" style="edgeStyle=orthogonalEdgeStyle;rounded=1;sketch=0;orthogonalLoop=1;jettySize=auto;html=1;exitX=0;exitY=0.5;exitDx=0;exitDy=0;entryX=0;entryY=0.5;entryDx=0;entryDy=0;startArrow=none;startFill=0;endArrow=block;endFill=1;fontSize=14;strokeColor=#A8201A;fontColor=#143642;labelBackgroundColor=#DAD2D8;" edge="1" parent="1" source="O1Ew0qbhxfNDliVo-ExG-34" target="O1Ew0qbhxfNDliVo-ExG-29">
          <mxGeometry relative="1" as="geometry">
            <Array as="points">
              <mxPoint x="680" y="198" />
              <mxPoint x="680" y="236" />
            </Array>
          </mxGeometry>
        </mxCell>
        <mxCell id="O1Ew0qbhxfNDliVo-ExG-44" value="CMD" style="edgeLabel;html=1;align=center;verticalAlign=middle;resizable=0;points=[];fontSize=14;fontColor=#143642;labelBackgroundColor=#DAD2D8;" vertex="1" connectable="0" parent="O1Ew0qbhxfNDliVo-ExG-43">
          <mxGeometry x="0.52" y="-1" relative="1" as="geometry">
            <mxPoint x="8.120000000000001" y="-9" as="offset" />
          </mxGeometry>
        </mxCell>
        <mxCell id="O1Ew0qbhxfNDliVo-ExG-34" value="Experiment control software" style="rounded=1;whiteSpace=wrap;html=1;labelBackgroundColor=none;sketch=0;fontSize=14;align=left;fillColor=#f8cecc;strokeColor=#b85450;" vertex="1" parent="1">
          <mxGeometry x="920" y="170" width="120" height="60" as="geometry" />
        </mxCell>
        <mxCell id="O1Ew0qbhxfNDliVo-ExG-41" style="edgeStyle=orthogonalEdgeStyle;rounded=1;sketch=0;orthogonalLoop=1;jettySize=auto;html=1;exitX=0;exitY=0.75;exitDx=0;exitDy=0;entryX=0;entryY=0.5;entryDx=0;entryDy=0;startArrow=none;startFill=0;endArrow=block;endFill=1;fontSize=14;strokeColor=#A8201A;fontColor=#143642;labelBackgroundColor=#DAD2D8;" edge="1" parent="1" source="O1Ew0qbhxfNDliVo-ExG-29" target="O1Ew0qbhxfNDliVo-ExG-32">
          <mxGeometry relative="1" as="geometry">
            <Array as="points">
              <mxPoint x="620" y="300" />
              <mxPoint x="720" y="300" />
              <mxPoint x="720" y="280" />
            </Array>
          </mxGeometry>
        </mxCell>
        <mxCell id="O1Ew0qbhxfNDliVo-ExG-42" value="DATA" style="edgeLabel;html=1;align=center;verticalAlign=middle;resizable=0;points=[];fontSize=14;fontColor=#143642;labelBackgroundColor=#DAD2D8;" vertex="1" connectable="0" parent="O1Ew0qbhxfNDliVo-ExG-41">
          <mxGeometry x="-0.0897" y="1" relative="1" as="geometry">
            <mxPoint x="-22.83" y="1" as="offset" />
          </mxGeometry>
        </mxCell>
        <mxCell id="O1Ew0qbhxfNDliVo-ExG-47" value="C++" style="text;html=1;strokeColor=none;fillColor=none;align=center;verticalAlign=middle;whiteSpace=wrap;rounded=0;labelBackgroundColor=none;sketch=0;fontSize=14;fontColor=#143642;" vertex="1" parent="1">
          <mxGeometry x="1000" y="207.5" width="40" height="20" as="geometry" />
        </mxCell>
        <mxCell id="O1Ew0qbhxfNDliVo-ExG-48" value="JAVA" style="text;html=1;strokeColor=none;fillColor=none;align=center;verticalAlign=middle;whiteSpace=wrap;rounded=0;labelBackgroundColor=none;sketch=0;fontSize=14;fontColor=#143642;" vertex="1" parent="1">
          <mxGeometry x="1000" y="290" width="40" height="20" as="geometry" />
        </mxCell>
        <mxCell id="O1Ew0qbhxfNDliVo-ExG-52" value="" style="shape=image;verticalLabelPosition=bottom;verticalAlign=top;aspect=fixed;imageAspect=0;image=https://cdn.iconscout.com/icon/premium/png-256-thumb/ethernet-1820398-1544912.png;fillColor=#FAE5C7;strokeColor=#0F8B8D;fontColor=#143642;" vertex="1" parent="1">
          <mxGeometry x="540" y="134" width="36" height="36" as="geometry" />
        </mxCell>
        <mxCell id="O1Ew0qbhxfNDliVo-ExG-54" value="" style="shape=image;verticalLabelPosition=bottom;verticalAlign=top;aspect=fixed;imageAspect=0;image=https://cdn4.iconfinder.com/data/icons/computers-3/32/574-01-512.png;fillColor=#FAE5C7;strokeColor=#0F8B8D;fontColor=#143642;" vertex="1" parent="1">
          <mxGeometry x="830" y="280" width="30" height="30" as="geometry" />
        </mxCell>
        <mxCell id="O1Ew0qbhxfNDliVo-ExG-55" value="" style="shape=image;verticalLabelPosition=bottom;verticalAlign=top;aspect=fixed;imageAspect=0;image=https://cdn0.iconfinder.com/data/icons/mobile-phone-componets-1/144/mobile-icon_07-512.png;fillColor=#FAE5C7;strokeColor=#0F8B8D;fontColor=#143642;labelBackgroundColor=#DAD2D8;" vertex="1" parent="1">
          <mxGeometry x="440" y="112.5" width="40" height="40" as="geometry" />
        </mxCell>
        <mxCell id="O1Ew0qbhxfNDliVo-ExG-62" value="Pressure device / Actuator" style="rounded=1;whiteSpace=wrap;html=1;sketch=0;strokeColor=#0F8B8D;fillColor=#FAE5C7;fontColor=#143642;" vertex="1" parent="1">
          <mxGeometry x="760" width="130" height="90" as="geometry" />
        </mxCell>
        <mxCell id="O1Ew0qbhxfNDliVo-ExG-63" value="" style="endArrow=classic;html=1;strokeColor=#A8201A;fillColor=#FAE5C7;fontColor=#143642;entryX=0;entryY=0.5;entryDx=0;entryDy=0;strokeWidth=3;" edge="1" parent="1" target="O1Ew0qbhxfNDliVo-ExG-62">
          <mxGeometry width="50" height="50" relative="1" as="geometry">
            <mxPoint x="600" y="170" as="sourcePoint" />
            <mxPoint x="600" y="30" as="targetPoint" />
            <Array as="points">
              <mxPoint x="600" y="45" />
            </Array>
          </mxGeometry>
        </mxCell>
        <mxCell id="O1Ew0qbhxfNDliVo-ExG-64" value="EtherCAT" style="edgeLabel;html=1;align=center;verticalAlign=middle;resizable=0;points=[];fontColor=#143642;" vertex="1" connectable="0" parent="O1Ew0qbhxfNDliVo-ExG-63">
          <mxGeometry x="0.386" y="1" relative="1" as="geometry">
            <mxPoint x="16" y="6" as="offset" />
          </mxGeometry>
        </mxCell>
        <mxCell id="O1Ew0qbhxfNDliVo-ExG-69" value="" style="shape=image;verticalLabelPosition=bottom;labelBackgroundColor=#ffffff;verticalAlign=top;aspect=fixed;imageAspect=0;image=https://www.ethercat.org/images/press/EtherCAT_P.jpg;" vertex="1" parent="1">
          <mxGeometry x="610" y="56" width="142.58" height="34" as="geometry" />
        </mxCell>
      </root>
    </mxGraphModel>
  </diagram>
</mxfile>
